<svg version="1.1" id="Layer_1" xmlns="http://www.w3.org/2000/svg" xmlns:xlink="http://www.w3.org/1999/xlink" x="0px" y="0px"
	 width="100%" viewBox="0 0 952 874" enable-background="new 0 0 952 874" xml:space="preserve">
<path fill="#FFFFFF" opacity="0" stroke="none" 
	d="
M554.000000,875.000000 
	C370.833344,875.000000 188.166656,874.986633 5.500055,875.093750 
	C1.750714,875.095947 0.905460,874.249146 0.906783,870.499939 
	C1.008512,582.166687 1.008512,293.833344 0.906783,5.500033 
	C0.905460,1.750866 1.750886,0.905651 5.500030,0.906855 
	C319.833344,1.007807 634.166687,1.007807 948.500000,0.906855 
	C952.249084,0.905651 953.094543,1.750866 953.093201,5.500033 
	C952.991455,293.833344 952.991516,582.166687 953.093262,870.499939 
	C953.094604,874.249146 952.249451,875.097473 948.499939,875.094238 
	C817.166687,874.981445 685.833313,875.000000 554.000000,875.000000 
z"/>
<!-- stroke body -->
<path fill="#030201" opacity="1.000000" stroke="none" 
	d="
M500.000000,798.004211 
	C420.669525,798.004211 341.839050,798.004822 263.008575,798.003174 
	C255.372650,798.003052 254.972656,797.361450 257.313202,790.238586 
	C265.471039,765.412109 273.619720,740.582458 281.663727,715.718994 
	C287.635803,697.259644 293.391571,678.730408 299.330261,660.260132 
	C308.998230,630.191406 318.769684,600.155884 328.436340,570.086731 
	C337.711761,541.234497 346.868378,512.344116 356.152802,483.494873 
	C365.533722,454.345795 375.014099,425.228729 384.425598,396.089478 
	C385.065460,394.108398 385.476746,392.054352 386.025604,390.042755 
	C386.360535,388.815155 387.638672,387.459625 388.345612,388.189240 
	C389.453278,389.332306 391.691254,387.989044 392.074066,390.581329 
	C393.874756,402.775024 399.248688,413.835541 403.704254,425.145111 
	C411.035370,443.753540 420.292358,461.369568 431.933411,477.720734 
	C439.969147,489.007874 449.182526,498.933746 461.227234,506.024384 
	C479.771667,516.941406 497.423401,513.860168 514.178162,502.202820 
	C527.502258,492.932495 538.082520,480.848541 547.728516,467.844666 
	C561.320740,449.520996 572.060486,429.547211 582.192017,409.226196 
	C584.747131,404.101288 587.682556,399.067688 589.044983,393.367249 
	C589.682312,390.700592 592.043213,392.387604 593.584595,392.041260 
	C595.009216,391.721191 595.690002,392.165558 596.098022,394.013306 
	C599.950745,411.460419 603.877258,428.894440 608.078674,446.260590 
	C614.587219,473.163025 620.920471,500.103821 627.159119,527.070435 
	C631.038574,543.839661 635.142334,560.564392 639.106201,577.319519 
	C645.144836,602.844299 651.423462,628.309387 657.101746,653.922180 
	C661.174072,672.291382 666.139038,690.461243 670.330017,708.805969 
	C676.496521,735.798523 683.714172,762.548340 689.041870,789.734619 
	C689.194336,790.512695 689.789612,791.202209 689.952881,791.980347 
	C690.926025,796.618103 689.798645,797.996521 684.990417,797.998230 
	C652.491577,798.009705 619.992798,798.004211 587.493958,798.004211 
	C558.495972,798.004211 529.497986,798.004211 500.000000,798.004211 
z"/>
<path fill="#030201" opacity="1.000000" stroke="none" 
	d="
M548.362488,385.799835 
	C551.006226,405.858032 545.729370,422.977905 530.883545,436.553162 
	C521.229675,445.380829 509.741089,450.241913 496.695129,452.115723 
	C482.076080,454.215546 468.617462,451.321320 456.180481,443.941467 
	C440.113129,434.407532 430.150970,420.694275 427.911652,401.570374 
	C424.748230,374.554657 440.593018,353.986725 460.129425,344.577179 
	C487.441284,331.422791 517.378845,337.890106 536.971313,360.705383 
	C542.945984,367.662872 547.158936,375.961487 548.362488,385.799835 
z"/>
<path fill="#020603" opacity="1.000000" stroke="none" 
	d="
M214.992935,122.013275 
	C215.055603,118.203110 214.166824,114.472427 215.387360,111.655807 
	C217.635361,106.468201 222.599838,109.718208 225.963318,110.193756 
	C240.141357,112.198364 254.088181,115.511543 266.803741,122.408554 
	C280.480713,129.827026 291.050873,140.039963 295.313538,155.701080 
	C299.164368,169.849091 296.479218,183.335312 291.692200,196.650757 
	C291.065063,198.395065 289.135498,199.359543 287.469452,199.767487 
	C271.504089,203.676819 255.864532,203.647537 241.764175,193.913757 
	C230.248444,185.964203 224.068390,174.109329 220.080231,161.087357 
	C217.710037,153.348328 216.676849,145.324936 215.865448,137.245575 
	C215.371277,132.324799 214.939941,127.440536 214.992935,122.013275 
z"/>
<path fill="#020602" opacity="1.000000" stroke="none" 
	d="
M922.776123,482.645447 
	C913.371643,493.671753 903.669373,503.856171 891.362183,511.119873 
	C872.271484,522.387146 849.840027,522.109497 831.803162,508.412231 
	C827.423218,505.086060 823.764282,501.090790 819.849304,497.321930 
	C816.979126,494.558807 816.527405,491.558655 817.679443,487.580109 
	C820.856079,476.609894 825.723816,466.704712 834.434387,459.155151 
	C842.165283,452.454773 851.214478,448.577454 861.570862,447.981323 
	C885.942383,446.578400 907.030823,456.049835 927.412415,467.820190 
	C930.496033,469.601013 930.233582,472.371613 928.496826,474.973694 
	C926.795959,477.521881 924.828125,479.891846 922.776123,482.645447 
z"/>
<path fill="#010502" opacity="1.000000" stroke="none" 
	d="
M121.657227,448.231201 
	C127.213425,454.005310 131.510193,460.221985 135.521835,466.766174 
	C139.231247,472.817352 138.894562,477.979584 134.901306,483.473022 
	C122.788231,500.136810 107.025436,509.564301 85.934036,506.872467 
	C72.782921,505.194031 61.297626,498.851044 50.659496,491.128510 
	C41.601368,484.552917 33.256870,477.131348 25.534763,469.027588 
	C23.103697,466.476379 23.412708,464.301056 26.349215,462.056885 
	C41.032921,450.835205 56.397205,441.036987 74.793251,436.953217 
	C91.801529,433.177521 107.157501,435.973877 120.423668,447.790802 
	C120.636055,447.979980 121.041725,447.952240 121.657227,448.231201 
z"/>
<path fill="#020602" opacity="1.000000" stroke="none" 
	d="
M764.781738,184.721115 
	C756.362122,195.933472 745.124939,201.526749 731.975525,204.065613 
	C726.062378,205.207321 720.153564,204.807404 714.235962,205.044785 
	C710.662781,205.188126 708.042603,203.411194 706.416260,200.758499 
	C700.764832,191.540512 697.183716,181.336426 697.222046,170.615448 
	C697.258606,160.379135 700.695618,150.731079 707.104736,142.360443 
	C717.448669,128.851044 731.874023,121.326469 747.097229,115.089348 
	C753.603088,112.423782 760.441711,110.561852 767.152222,108.406723 
	C772.307373,106.751122 774.030457,108.425659 775.122559,113.676376 
	C777.159851,123.471085 777.083435,133.319504 776.985107,143.194016 
	C776.837280,158.038940 773.704773,172.057205 764.781738,184.721115 
z"/>
<path fill="#020602" opacity="1.000000" stroke="none" 
	d="
M600.309143,241.198303 
	C591.684509,254.284729 579.084229,261.107452 565.142944,265.919312 
	C561.898254,267.039185 559.390625,264.351898 557.393005,262.622894 
	C547.816650,254.334274 539.574036,245.078613 536.913757,232.001099 
	C534.119873,218.267181 536.881104,205.626190 543.780640,193.754593 
	C552.963013,177.955002 565.845337,165.506088 580.115723,154.367096 
	C582.953552,152.151932 585.895325,152.452499 587.652466,155.307953 
	C597.204529,170.830505 605.434631,187.082748 607.806641,205.349106 
	C609.416443,217.745255 607.613831,230.017853 600.309143,241.198303 
z"/>
<path fill="#020602" opacity="1.000000" stroke="none" 
	d="
M90.069618,338.013947 
	C73.057083,329.177582 61.081200,315.458496 50.210716,300.591614 
	C48.222069,297.871826 46.671291,294.820465 44.583309,292.187927 
	C42.426064,289.468079 43.322205,285.536255 46.573177,283.999420 
	C59.967228,277.667603 73.741982,271.891388 88.434105,270.243622 
	C107.123955,268.147491 124.996391,270.660614 138.631577,286.031250 
	C146.913864,295.367645 151.221497,306.494202 153.621582,318.367126 
	C154.308899,321.767273 151.023148,324.873657 148.292206,327.142792 
	C140.088959,333.958679 131.692398,340.259827 120.642151,342.168335 
	C110.011208,344.004425 100.039192,342.950897 90.069618,338.013947 
z"/>
<!-- stroke -->
<path fill="#010502" opacity="1.000000" stroke="none" 
	d="
M494.708069,34.197350 
	C507.205902,47.282291 516.656006,61.750843 520.657959,79.268616 
	C524.035522,94.053474 520.385315,107.390251 511.863159,119.668419 
	C506.624084,127.216583 499.287689,132.333771 492.002258,137.597733 
	C487.804199,140.630936 483.888458,138.475815 480.629333,136.712906 
	C466.986786,129.333435 456.157837,119.471619 451.816071,103.623161 
	C448.693848,92.226234 450.651794,81.489769 454.024628,70.768394 
	C459.486542,53.406330 469.968994,38.913956 481.119507,24.890650 
	C482.069733,23.695580 484.820923,23.438496 486.181519,24.817259 
	C489.058716,27.732841 492.653900,30.045195 494.708069,34.197350 
z"/>
<path fill="#010502" opacity="1.000000" stroke="none" 
	d="
M901.063477,253.994888 
	C904.871155,254.556061 908.008789,253.152466 911.273621,252.996902 
	C915.186523,252.810425 917.239746,254.638275 916.990173,258.601166 
	C915.548828,281.490204 911.468445,303.666901 896.359497,321.955109 
	C888.818542,331.082886 878.339539,335.810577 866.687500,338.056244 
	C857.129395,339.898285 847.957214,337.996979 838.746094,335.995148 
	C834.147095,334.995636 831.222412,332.953156 829.770691,327.681854 
	C824.263855,307.686707 826.529663,289.505219 841.932434,274.800751 
	C852.528564,264.684845 866.192810,259.910614 880.391113,257.053833 
	C887.060730,255.711853 893.856201,254.995026 901.063477,253.994888 
z"/>
<path fill="#020502" opacity="1.000000" stroke="none" 
	d="
M445.274597,199.696228 
	C457.106842,216.797714 457.729828,240.137375 444.324951,259.066864 
	C440.987061,263.780334 438.113922,269.228943 432.651886,271.931519 
	C426.599548,274.926147 420.772675,271.562622 415.497986,269.570526 
	C402.612579,264.704010 391.853973,256.874756 386.716583,243.258163 
	C383.325653,234.270569 381.930817,225.228561 382.754761,215.385727 
	C384.252014,197.499207 390.328278,181.310959 397.857147,165.365433 
	C399.696320,161.470230 401.969086,161.440338 404.956299,163.025131 
	C413.582916,167.601776 421.175049,173.713593 428.438629,180.113907 
	C434.810730,185.728668 441.011017,191.681717 445.274597,199.696228 
z"/>
<path fill="#010402" opacity="1.000000" stroke="none" 
	d="
M750.297363,435.991730 
	C736.447144,430.999084 725.526184,422.948914 717.260376,411.018127 
	C714.163147,406.547699 715.894653,402.889984 717.398926,399.348267 
	C723.265564,385.535339 732.061951,374.294037 746.819031,369.027618 
	C756.227173,365.670074 765.825500,365.222015 775.623230,367.233978 
	C794.599304,371.130676 810.898254,380.654877 826.679871,391.279785 
	C830.270691,393.697266 830.507507,397.046265 827.481079,400.028809 
	C817.775940,409.593658 808.638855,419.746277 796.735474,426.875946 
	C786.760925,432.850281 776.254700,437.133179 764.660400,437.848206 
	C760.069275,438.131317 755.370667,436.670410 750.297363,435.991730 
z"/>
<path fill="#010502" opacity="1.000000" stroke="none" 
	d="
M738.028198,305.996307 
	C730.826782,323.505066 717.993896,333.421326 699.870483,337.104675 
	C692.761841,338.549408 685.701172,337.464325 678.647949,338.041809 
	C675.748352,338.279266 674.246460,336.296112 673.199524,334.441589 
	C667.490784,324.330109 663.153503,313.660492 664.068970,301.781433 
	C665.158752,287.640564 671.337097,276.163940 682.328430,266.835297 
	C697.751099,253.745682 716.020203,247.080185 734.942261,241.483932 
	C738.294739,240.492416 740.420349,241.317841 741.111755,244.628128 
	C743.797913,257.488342 744.920349,270.403290 743.264832,283.571838 
	C742.311584,291.154663 741.157654,298.575134 738.028198,305.996307 
z"/>
<path fill="#010502" opacity="1.000000" stroke="none" 
	d="
M236.234558,383.690369 
	C249.784943,391.386597 257.188538,403.456360 262.563599,417.080933 
	C263.414459,419.237671 263.454376,421.526581 262.096954,423.680206 
	C253.607101,437.150055 242.162399,446.259766 226.061844,449.055450 
	C209.696930,451.897034 195.981186,445.660553 183.006531,436.960876 
	C170.836868,428.800903 160.649658,418.426758 151.609100,406.972382 
	C149.670120,404.515747 148.806152,401.901825 152.965469,399.293182 
	C166.079437,391.068207 179.406219,383.585846 194.577850,379.727325 
	C208.877686,376.090546 222.654617,376.669220 236.234558,383.690369 
z"/>
<path fill="#020502" opacity="1.000000" stroke="none" 
	d="
M305.041138,333.005646 
	C284.838287,333.110565 272.003540,322.326996 262.736969,306.236298 
	C254.558319,292.034668 250.799515,276.440765 248.933273,260.286102 
	C248.596481,257.370850 247.826645,254.526154 247.959076,251.532166 
	C248.087692,248.624832 249.655731,247.048203 252.307632,247.044037 
	C274.311127,247.009369 295.848846,249.262085 314.735352,262.014069 
	C327.843842,270.864807 334.735321,283.237488 336.271484,299.209534 
	C336.915344,305.903900 335.364380,312.067688 335.181946,318.463959 
	C334.949890,326.601410 329.804352,329.133026 323.455566,330.993988 
	C317.601013,332.710114 311.629517,333.459106 305.041138,333.005646 
z"/>
<!-- inner -->
<path fill="#FFFFFF" opacity="0.00" stroke="none" 
	d="
M580.726501,506.583923 
	C579.377136,512.429199 580.061340,517.920288 580.037048,523.376526 
	C579.938110,545.709351 579.474731,568.059082 580.173157,590.370483 
	C580.664429,606.063171 582.117920,621.744568 583.775208,637.410217 
	C586.262268,660.919678 590.805908,683.959412 596.764282,707.194397 
	C516.896851,659.966125 437.544373,662.348511 357.585693,708.879944 
	C359.342010,702.607239 360.635986,697.533508 362.183502,692.538330 
	C368.493744,672.169373 372.684601,651.353760 376.132874,630.326599 
	C378.394745,616.534302 380.458313,602.743347 382.107117,588.862732 
	C383.669312,575.711060 385.020386,562.559692 386.099854,549.358521 
	C387.346405,534.113953 388.335602,518.871338 389.184937,503.598572 
	C390.241821,484.594391 390.446442,465.582153 391.258575,446.592072 
	C391.758606,434.899841 391.557373,423.199860 392.176971,410.450317 
	C395.366425,418.279114 398.184906,425.158325 400.973511,432.049622 
	C408.800018,451.390808 418.767395,469.541199 431.586060,486.023865 
	C439.370056,496.032745 448.312592,504.889771 459.547363,511.108429 
	C479.200867,521.987061 497.995636,519.112915 516.121033,507.359253 
	C531.631287,497.301453 543.205872,483.323151 553.807922,468.518921 
	C566.445068,450.872925 576.859985,431.887482 586.631897,411.729492 
	C587.881165,418.359497 586.353027,424.214539 585.635010,429.857361 
	C584.977295,435.026581 584.652222,440.328583 584.302917,445.428223 
	C583.448181,457.906647 582.357544,470.393494 581.739258,482.902496 
	C581.355957,490.658722 581.298096,498.417328 580.726501,506.583923 
z"/>
<path fill="#ecd06f" opacity="1.000000" stroke="none" 
	d="
M605.976379,719.001404 
	C626.381836,733.040344 644.677673,748.990967 661.292358,766.852722 
	C668.762817,774.883972 676.004150,783.132385 682.954895,793.023438 
	C543.015808,793.023438 403.795197,793.023438 264.510315,793.023438 
	C264.241394,791.982727 265.255951,791.433105 265.896271,790.760437 
	C293.553802,761.709167 323.317474,735.192139 357.837067,714.399963 
	C387.366943,696.613098 418.787506,683.703918 453.142059,679.298035 
	C490.203156,674.545044 526.114929,679.571350 560.583252,694.225403 
	C576.411804,700.954956 591.444580,709.145386 605.976379,719.001404 
z"/>
<!-- brown -->
<path fill="#ecd06f" opacity="1.000000" stroke="none" 
	d="
M633.192017,572.773438 
	C644.850220,621.988831 656.412903,670.799438 667.991760,719.606262 
	C672.899353,740.292786 677.844055,760.970459 682.755188,781.656128 
	C682.941528,782.441162 682.952332,783.267883 683.201172,785.437561 
	C678.703979,780.222229 675.041382,775.927856 671.328796,771.677185 
	C652.395569,749.999268 631.218933,730.828430 607.318604,714.747131 
	C604.527893,712.869324 602.873047,710.651062 601.928589,707.418274 
	C595.527893,685.509155 591.511902,663.163940 588.850830,640.514771 
	C584.941345,607.240601 583.575928,573.838623 584.226379,540.394470 
	C584.808350,510.475952 585.850342,480.550964 588.790955,450.731812 
	C590.095459,437.503662 590.962769,424.232727 592.084900,410.985962 
	C592.235962,409.203217 592.717590,407.448486 593.809082,405.668335 
	C606.907043,461.234589 620.005066,516.800842 633.192017,572.773438 
z"/>
<path fill="#ecd06f" opacity="1.000000" stroke="none" 
	d="
M305.249390,747.252808 
	C291.171570,758.882751 278.669342,771.705017 266.003845,784.349243 
	C265.550415,784.063660 265.096954,783.778076 264.643524,783.492493 
	C305.138641,657.656006 345.633789,531.819519 386.128906,405.983063 
	C386.438263,405.992035 386.747650,406.001007 387.057007,406.010010 
	C387.057007,407.351593 387.035706,408.693604 387.060181,410.034729 
	C387.482697,433.187042 386.653320,456.330841 385.753448,479.445099 
	C384.725769,505.843445 383.210907,532.258301 380.749207,558.557556 
	C376.459259,604.388428 370.228394,649.952209 356.963196,694.239990 
	C355.341766,699.653442 353.461517,704.988892 351.742950,710.373901 
	C350.880280,713.077148 349.004761,714.751282 346.668304,716.256042 
	C332.237823,725.549622 318.560913,735.864685 305.249390,747.252808 
z"/>
<path fill="#ecd06f" opacity="1.000000" stroke="none" 
	d="
M264.586121,785.550171 
	C264.480652,785.641785 264.445892,785.307983 264.445892,785.307983 
	C264.445892,785.307983 264.691589,785.458496 264.586121,785.550171 
z"/>
<path fill="#ecd06f" opacity="1.000000" stroke="none" 
	d="
M529.812561,430.804260 
	C506.714203,453.535583 468.771027,453.703827 447.162964,431.420654 
	C421.112122,404.555878 430.269592,361.938812 465.210938,347.429016 
	C494.159698,335.407654 526.909668,347.373444 539.959717,374.739777 
	C548.726624,393.124268 544.847656,415.000305 529.812561,430.804260 
z"/>
<!-- leaf -->
<path fill="white" opacity="1.000000" stroke="none" 
	d="
M222.583435,114.483337 
	C237.423965,116.584557 251.444763,119.940178 264.485260,126.668922 
	C292.204346,140.971649 297.466766,166.398514 288.345123,191.905029 
	C287.471985,194.346527 285.961548,195.322250 283.740997,195.798782 
	C258.956024,201.117523 238.461548,193.265228 227.916107,168.389496 
	C220.942169,151.938644 219.649292,134.558640 219.765671,116.968170 
	C219.776352,115.353317 219.831833,113.830490 222.583435,114.483337 
z"/>
<path fill="white" opacity="1.000000" stroke="none" 
	d="
M908.869751,490.868347 
	C900.263672,499.606781 891.110352,506.962585 879.834167,511.279175 
	C857.013489,520.015076 836.796021,509.914703 822.995056,493.585266 
	C821.279846,491.555817 822.075989,489.586029 822.683594,487.499237 
	C830.318359,461.279938 850.893372,448.501556 878.109741,453.235138 
	C893.867371,455.975769 908.198303,462.518890 922.142578,470.073853 
	C924.420044,471.307739 924.414612,472.392670 922.982849,474.251434 
	C918.613647,479.923706 914.180420,485.534271 908.869751,490.868347 
z"/>
<path fill="white" opacity="1.000000" stroke="none" 
	d="
M101.320541,501.798706 
	C84.347672,504.409698 70.177261,498.403534 56.843372,489.547119 
	C47.662434,483.449036 39.435795,476.192780 31.688950,468.373016 
	C30.280352,466.951141 29.073036,465.819519 31.431236,464.089142 
	C46.001125,453.398254 61.094780,443.823822 79.399231,440.853333 
	C100.147438,437.486237 116.032623,445.528595 127.150307,462.589539 
	C136.166290,476.425293 136.318344,473.924866 125.561638,487.095581 
	C119.411613,494.625824 111.343475,499.530792 101.320541,501.798706 
z"/>
<path fill="white" opacity="1.000000" stroke="none" 
	d="
M703.204956,180.477951 
	C699.318115,160.495636 707.082336,145.695999 722.266357,134.073486 
	C735.696838,123.793198 751.313965,118.191490 767.283386,113.375656 
	C769.373169,112.745445 770.489807,113.237434 770.750244,115.412430 
	C772.976135,134.001282 774.298706,152.559967 767.199646,170.518967 
	C757.465576,195.143997 734.748779,201.773178 713.302979,200.052292 
	C711.222351,199.885330 710.565735,198.435837 709.737061,197.029221 
	C706.763611,191.982224 704.714600,186.562454 703.204956,180.477951 
z"/>
<path fill="white" opacity="1.000000" stroke="none" 
	d="
M588.102539,248.128204 
	C581.669434,253.578415 574.713684,257.369354 567.152161,260.170471 
	C564.891785,261.007812 563.191406,260.882141 561.177246,259.476715 
	C541.295410,245.603607 535.011169,222.685471 545.454956,200.928543 
	C553.576172,184.009949 566.852600,171.444077 581.006714,159.669937 
	C582.675964,158.281372 583.798889,158.403046 584.928162,160.305328 
	C594.153931,175.845642 602.193420,191.803833 603.282288,210.335556 
	C604.155090,225.191254 599.456482,237.802200 588.102539,248.128204 
z"/>
<path fill="white" opacity="1.000000" stroke="none" 
	d="
M81.115486,326.921783 
	C68.259483,317.029572 58.702610,304.712982 49.959164,291.651093 
	C48.357616,289.258514 49.013340,288.292389 51.315033,287.216583 
	C65.721603,280.483124 80.551926,274.984161 96.584251,274.284790 
	C125.838058,273.008728 142.609940,291.179077 148.605972,316.879150 
	C149.186081,319.365631 147.688034,320.598999 146.366837,322.022644 
	C127.968201,341.847656 104.155403,343.710236 81.115486,326.921783 
z"/>
<path fill="white" opacity="1.000000" stroke="none" 
	d="
M505.243195,120.210129 
	C501.864319,123.938667 498.219727,126.838409 494.728607,129.923767 
	C489.926910,134.167419 485.619110,134.235199 480.004913,131.049698 
	C459.319550,119.312813 451.028564,100.708450 456.921173,77.525253 
	C461.365479,60.040024 471.223083,45.461578 482.026367,31.413755 
	C483.110565,30.003956 484.031830,29.383793 485.550262,30.983370 
	C499.532288,45.712837 512.294373,61.160156 516.221191,81.940132 
	C518.953003,96.396484 514.668274,108.860641 505.243195,120.210129 
z"/>
<path fill="white" opacity="1.000000" stroke="none" 
	d="
M833.921997,296.133881 
	C839.182800,280.390289 850.924683,271.948608 865.222595,266.350494 
	C879.158203,260.894226 893.846619,259.161255 908.640198,258.106537 
	C910.485046,257.975037 912.399231,257.685089 912.141663,260.684692 
	C910.387817,281.113342 906.976807,301.098724 893.554688,317.586426 
	C878.831238,335.672668 856.631226,336.767914 837.523438,330.637329 
	C835.682068,330.046539 835.024231,328.616608 834.542175,326.969299 
	C831.590698,316.883759 830.692749,306.752563 833.921997,296.133881 
z"/>
<path fill="white" opacity="1.000000" stroke="none" 
	d="
M449.695343,231.546936 
	C448.173920,245.291397 441.919464,256.187897 432.835815,265.735901 
	C430.860504,267.812195 428.885651,268.283661 426.176697,267.731628 
	C398.546082,262.100769 383.822235,240.964905 387.575409,212.859375 
	C389.559387,198.002228 394.426086,184.150467 400.431763,170.565048 
	C401.698730,167.699081 402.656586,166.896927 405.645203,168.881256 
	C418.059845,177.124084 429.775177,186.113724 438.757874,198.185547 
	C446.013031,207.935822 450.267426,218.742706 449.695343,231.546936 
z"/>
<path fill="white" opacity="1.000000" stroke="none" 
	d="
M723.602051,411.337616 
	C719.975464,407.881836 720.165649,404.525635 721.951538,400.370941 
	C731.892761,377.243561 751.990845,366.770447 776.651917,372.344269 
	C793.503174,376.152954 808.173096,384.621948 822.306335,394.172394 
	C823.724304,395.130554 824.601440,395.943817 823.049927,397.636566 
	C809.993591,411.881744 796.031128,425.006744 777.008118,430.775879 
	C756.872375,436.882477 740.468811,429.892426 726.682068,415.086304 
	C725.663269,413.992249 724.780212,412.771881 723.602051,411.337616 
z"/>
<path fill="white" opacity="1.000000" stroke="none" 
	d="
M739.081116,276.912628 
	C738.820557,286.102264 737.332703,294.562378 734.327637,302.762085 
	C725.203186,327.659058 701.949341,335.161987 681.175537,333.509277 
	C678.736206,333.315216 677.343628,332.150696 676.138000,330.112854 
	C663.122314,308.112244 667.422424,284.478882 687.422791,268.609528 
	C701.929810,257.098938 718.934570,251.063156 736.712585,246.009048 
	C738.944458,256.187103 739.264038,266.285675 739.081116,276.912628 
z"/>
<path fill="white" opacity="1.000000" stroke="none" 
	d="
M155.912231,405.206055 
	C155.089767,404.028931 155.487274,403.440002 156.287460,402.918610 
	C170.595688,393.595276 185.415863,385.284607 202.652023,382.961212 
	C226.516647,379.744324 244.088501,389.357605 254.833115,410.941284 
	C259.511322,420.338806 259.362122,421.352905 252.143967,429.220001 
	C237.117523,445.597260 217.895096,449.450043 197.726120,439.967590 
	C180.908051,432.060516 168.079117,419.279480 155.912231,405.206055 
z"/>
<path fill="white" opacity="1.000000" stroke="none" 
	d="
M254.846558,268.117981 
	C254.150040,263.417267 253.525284,259.142059 252.885742,254.869110 
	C252.588882,252.885712 253.054092,251.749496 255.427155,251.784760 
	C274.244446,252.064484 292.660980,254.187988 309.266571,264.018005 
	C331.417053,277.130432 335.037933,300.809357 329.797913,321.562988 
	C329.264801,323.674316 327.676758,324.320587 325.933533,325.008484 
	C302.008545,334.449829 279.710052,326.627563 266.985413,304.268555 
	C260.655396,293.145813 257.139526,281.059937 254.846558,268.117981 
z"/>
</svg>